<svg xmlns="http://www.w3.org/2000/svg" version="1.0" width="275.000000pt" height="46.000000pt" viewBox="0 0 875.000000 46.000000" preserveAspectRatio="xMidYMid meet">

<g transform="translate(0.000000,46.000000) scale(0.100000,-0.100000)" fill="#e0e0e0" stroke="none">
<path d="M35 425 c-25 -24 -25 -27 -25 -195 0 -235 -18 -220 259 -220 136 0 219 4 235 11 34 16 46 56 46 155 l0 84 -135 0 -135 0 0 -35 0 -35 85 0 85 0 0 -50 0 -50 -170 0 -171 0 3 143 3 142 165 0 165 0 3 -24 c3 -21 7 -23 45 -17 53 9 59 15 51 55 -11 56 -36 61 -274 61 -211 0 -211 0 -235 -25z" fill="#e0e0e0"/>
<path d="M740 230 l0 -220 231 0 230 0 -3 35 -3 36 -175 3 -175 4 -3 56 -3 56 106 0 105 0 0 35 0 35 -105 0 -105 0 0 55 0 55 180 0 180 0 0 35 0 35 -230 0 -230 0 0 -220z" fill="#e0e0e0"/>
<path d="M1310 415 l0 -34 103 -3 102 -3 3 -182 2 -183 50 0 50 0 2 183 3 182 103 3 102 3 0 34 0 35 -260 0 -260 0 0 -35z" fill="#e0e0e0"/>
<path d="M1980 230 l0 -220 50 0 50 0 0 220 0 220 -50 0 -50 0 0 -220z" fill="#e0e0e0"/>
<path d="M2250 230 l0 -220 45 0 44 0 3 151 3 151 145 -118 c222 -182 225 -184 259 -184 l31 0 0 220 0 220 -40 0 -40 0 0 -139 c0 -77 -4 -142 -9 -145 -5 -3 -90 59 -190 139 -156 125 -185 145 -216 145 l-35 0 0 -220z" fill="#e0e0e0"/>
<path d="M3855 426 c-23 -23 -25 -33 -25 -106 0 -121 -2 -120 215 -120 l175 0 0 -60 0 -59 -157 2 -158 2 -3 28 c-3 26 -5 27 -40 21 -50 -9 -52 -11 -52 -45 0 -18 9 -39 25 -54 24 -25 25 -25 224 -25 197 0 200 0 228 24 27 23 28 28 28 110 0 75 -3 88 -23 108 -21 21 -30 23 -195 24 l-172 1 -3 51 -3 52 150 0 151 0 0 -25 c0 -28 1 -29 53 -14 29 8 37 15 37 33 0 13 -9 34 -19 47 -19 24 -23 24 -215 27 l-196 3 -25 -25z" fill="#e0e0e0"/>
<path d="M4525 425 c-25 -24 -25 -27 -25 -195 0 -168 0 -171 25 -195 l24 -25 220 0 c241 0 264 4 281 53 13 39 13 295 0 334 -17 49 -40 53 -281 53 l-220 0 -24 -25z" fill="#e0e0e0"/>
<path d="M5250 231 l0 -221 221 0 220 0 -3 38 -3 37 -165 0 -165 0 -5 180 -5 180 -47 3 -48 3 0 -220z" fill="#e0e0e0"/>
<path d="M5840 255 c0 -264 -20 -245 253 -245 274 0 251 -22 255 239 l3 201 -50 0 -51 0 -2 -182 -3 -182 -150 0 -150 0 -3 182 -2 182 -50 0 -50 0 0 -195z" fill="#e0e0e0"/>
<path d="M6500 415 l0 -34 103 -3 102 -3 3 -183 2 -183 48 3 47 3 3 183 2 182 105 0 105 0 0 35 0 35 -260 0 -260 0 0 -35z" fill="#e0e0e0"/>
<path d="M7160 230 l0 -220 50 0 50 0 0 220 0 220 -50 0 -50 0 0 -220z" fill="#e0e0e0"/>
<path d="M7495 438 c-11 -6 -23 -16 -27 -22 -4 -6 -8 -90 -8 -186 0 -96 4 -180 8 -186 19 -29 55 -34 266 -34 232 0 261 5 274 49 4 14 7 91 7 171 0 167 -5 192 -40 208 -35 16 -452 16 -480 0z" fill="#e0e0e0"/>
<path d="M8210 229 l0 -220 43 3 42 3 5 147 5 147 184 -150 c156 -127 188 -149 217 -149 l34 0 0 220 0 220 -45 0 -45 0 0 -145 c0 -80 -3 -145 -6 -145 -3 0 -87 65 -187 145 -151 121 -187 145 -214 145 l-33 0 0 -221z" fill="#e0e0e0"/>
</g>
</svg>